<svg xmlns="http://www.w3.org/2000/svg" role="img" viewBox="25.17 17.17 316.16 311.41"><defs><clipPath><path fill-rule="evenodd" d="M0 841.92h595.32V0H0z"/></clipPath><clipPath><path fill-rule="evenodd" d="M0 841.91994h595.32V-.00007H0z"/></clipPath></defs><g stroke-width="4.919"><path fill="#f2e5f2" fill-rule="evenodd" d="M31.32904 124.04299l56.42414 198.59133 195.44299-42.94531-62.67163-219.9902z"/><path fill="#b8a5c5" fill-rule="evenodd" d="M65.86238 192.2734l-5.362 7.23134-4.083 11.41273 30.79468 111.71685 147.13566-32.46725 4.18139-9.88775.39354-10.96999-2.0661-12.69175-19.8247-27.05604z"/><path fill="#b2e5e5" fill-rule="evenodd" d="M109.10285 87.0992l-24.05527 27.84313-15.053 24.44881-4.96847 23.21901-.98386 25.13752 9.5434 28.23666 18.98842 25.23591 22.48111 19.87389 36.00913 11.46192 28.97456 2.11529 36.99298-8.36278 33.54949-19.87389 18.98842-23.66173 9.44502-32.95918v-34.09061l-6.98538-26.66249-17.0699-21.98917-19.92308-15.7909-18.98842-8.36277-18.98842-5.75556-23.41577-3.14833-15.59412-1.03305-22.97304 4.62412z"/><path fill="#e9f6f6" fill-rule="evenodd" d="M209.99728 92.80557L196.912 87.73872l-15.10219-2.70561-14.11833 1.13144-9.44502 6.64102 1.57417 10.97 12.05223 9.19905 18.84085 9.83856 18.20133 14.90541 16.28282 17.0699 8.95309 16.52878 2.45964 13.18367-.39354 14.26591-1.57417 6.05072 6.1491 2.21367 6.34587-8.26439 3.59107-13.82317v-12.59336l-2.45964-21.44806-11.65869-28.08908-14.61026-19.67712z"/><path fill="#8cbfbf" fill-rule="evenodd" d="M111.16895 89.95239l-4.57493 7.13296.49193 10.62564 9.64179 10.77323 23.85851 10.67482 23.26819 7.72327 15.29896 9.5434 13.03609 14.95462 7.42811 14.21671 5.06686 14.85623 3.98462 20.90694v24.25205l-3.98462 16.62716-7.42811 11.95385-13.52802 8.36278-19.38196 1.13143-31.13904-5.85394-26.12138-11.41273-19.28358-17.26667-15.20057-24.25205-8.55955-35.76316 3.98462-29.66326 8.46116-24.98994 13.57721-19.03761z"/><path fill="#b3d9b3" fill-rule="evenodd" d="M243.59597 99.05306l3.49268 17.26667-4.96847 9.93694 8.9039 7.92004 15.05299 18.84084-1.03304 9.93695 14.95461 8.90389-6.05072-34.63173-12.44578-23.41576z"/><path fill="#8cbf8c" fill-rule="evenodd" d="M71.17521 215.34483l15.84008-19.8739.59031 21.93999 8.41197 2.11529.49193 26.12138-16.4304-14.51188z"/><path fill="#8cbf8c" fill-rule="evenodd" d="M260.56748 232.11957l.59031-14.16753-5.55878-10.42887-9.54341-10.57645 1.96772-26.46573 15.49573-5.75555 14.51187 1.03304.98386 21.93999-5.95233 25.03914z"/><path fill="#fff" fill-rule="evenodd" d="M149.63772 271.47381l18.00456-7.32973 19.03762-1.52498 24.44882-3.68946-3.00076 9.44502-22.92385 5.21444-20.56259 1.57417z"/><path fill="#8cbf8c" fill-rule="evenodd" d="M71.71633 139.14518l8.55954 6.93619-4.0338 18.89003-12.19982 7.87085z"/><path fill="#8cbf8c" fill-rule="evenodd" d="M174.08654 255.24019l-4.96847-20.90694 1.3774-12.69175-16.92233-12.44577 2.50884-12.64255 2.95156-10.57646 17.66022-8.90389 20.41501-6.69022 13.03609 1.03305 16.97152 6.8378.98385 15.15138-3.3943 25.72783-12.05224 4.18139h-5.55878l-12.9869 6.78861-4.96847 10.47806-1.96771 8.36278-11.46193 10.47806z"/><path fill="#8cbf8c" fill-rule="evenodd" d="M124.30343 160.64243l7.92004 8.9039 5.06686 4.57493 24.84236 11.01919 8.41197-3.54188-3.3943-2.65642 1.42659-11.6095-6.98538-4.18138-7.42811 7.87084-7.92004-4.13219 1.96771-10.03533z"/><path fill="#8cbf8c" fill-rule="evenodd" d="M142.50476 83.21298l17.70941-1.62336 7.13296 1.62336-3.64027 6.98538-10.52726-3.24673-7.03457.54112z"/><path fill="#66997f" fill-rule="evenodd" d="M143.48862 93.14992L128.5832 99.4466l-4.083 9.39583-15.44654 17.31585.98386 10.57645-.98386 11.6095 4.96847 14.16753 7.08377 12.05224 1.96771-13.7248 9.00228 9.93695 15.0038-11.51111 14.95462-8.80552 9.05147-2.11529 4.96847 13.52802 5.01767-13.52802 6.54264-3.24672 8.95309-10.47807 15.053-14.65944-3.49269-7.96923-21.00533 14.16751 6.98538-13.52801 14.51188-12.15062-12.54417-8.80551-11.46192 4.083-10.9208 12.15062.39354 13.62641-4.96847 1.47578-3.98462-8.26439h-11.06838l-1.47578-5.90313 2.45964-10.97-2.45964-3.14834z"/><path fill-rule="evenodd" d="M173.25026 72.48895l-16.28281-1.47578-17.36506 2.50883-15.44654 4.52574-10.62564 5.11605-10.03533 7.03457-10.2321 8.60874-11.01919 13.18367-6.24749 9.10066-5.75556 12.59335-4.87008 11.21596-2.90238 15.20057-.39354 14.65946 1.3774 17.31586 4.7717 15.59412 5.5588 15.20057 7.4773 11.6587 9.93694 11.41273 10.52725 9.5434 13.82318 8.9039 13.92156 5.55878 15.88928 4.62412 17.26667 2.90238 15.88927.63951 16.4304-2.11529 19.18519-4.67332 12.59336-4.96847 15.29896-10.03533 13.52802-11.6587 7.23134-9.10066 9.24824-15.7417 3.68946-12.15062.59032-8.06762-2.90238-5.11605-1.3774 8.70712-2.45964 8.55955-5.90313 10.08452-.88547-7.03457-3.83704 1.03305.49193 6.54265.49192 6.59183-8.65793 8.55955-5.75556 7.13295-10.13371 7.13296-10.62565 6.00152-7.67407 5.11605-15.88928 4.083-17.31586 2.41045-15.88928.54112-15.49573-1.47578-12.39658-4.083-17.8078-6.09991-11.6095-7.13296-9.64178-8.55954-13.42964-11.11758-8.75632-13.72479-4.7717-11.11757-3.83704-12.15062-2.0169-10.57645-.39354-9.64179 1.3774-12.19982 2.50883-12.15062 5.26363-14.11833 8.166-16.28281 8.60874-10.57645 8.75632-10.13371 12.05223-9.6418 13.87237-6.54263 12.64255-4.57493 17.7586-3.04996z"/><path fill-rule="evenodd" d="M190.46774 73.71877L209.2102 78.884l14.06914 5.11605 13.42963 6.54265 12.2982 8.26439 8.95309 9.05147 7.57569 7.87085 8.46116 14.41348 4.8209 11.65869 3.34511 12.19982 2.0169 13.23286-.98385 14.61026-3.49269 15.84008-1.91852-9.24825-2.7548-10.62564.39355-10.57645-1.03305-16.28282-3.24673-11.16676-4.91928-10.72403-5.75556-9.64178-7.77246-7.57569-14.46268-13.23287-12.9869-8.06761-13.52802-5.4604-15.05299-6.1983z"/><path fill-rule="evenodd" d="M73.93 134.32429l11.51112-10.13372 7.28053-3.98461 11.01919-6.19829 8.166-4.083 5.80475-2.95157 6.34587-1.03305v2.50883l-10.62564 5.11606-13.52802 7.03457-13.03609 9.24823-15.93847 10.03533z"/><path fill-rule="evenodd" d="M66.25593 173.8261l3.88623-5.60798 4.8209-1.57416 3.88622-.83628.98386-3.14834.98386-8.65793 2.41044-7.18215-.49193-3.59108-10.67483-5.06686-1.91852 5.70637 5.80475 1.86933v5.21443l-1.3774 5.55879-1.03305 5.60798-2.85318 2.65641-5.4112 1.47578z"/><path fill-rule="evenodd" d="M66.25593 190.9452l9.24824-9.64179 11.41273-10.72403 12.05224-8.60874 11.21596-5.95233 12.00304-5.55879 12.9377-3.68946-8.65793 5.16525-14.01995 8.06762-11.51111 7.13295-10.13372 7.03457-7.13295 5.65718-8.75632 7.57569-7.67408 8.06761z"/><path fill-rule="evenodd" d="M72.89695 213.18034l7.13296-12.54416 7.13296-7.13296 3.88623 1.96771-1.3774 20.75937 5.26363.39354 3.34511 2.60722 1.52498 6.0999.39354 9.10067 9.19905-9.64179 10.13372-7.13295 11.41273-5.95233 12.00304-6.1491 15.98766-6.00152 14.3643-1.96771 10.03533.39354-3.88623 3.04995-19.52955 4.52574-13.08528 4.57493-11.01919 5.65717-11.11757 5.55879-11.01919 7.5265-5.26362 4.91927-5.75556 5.11606-1.47579 8.70712-5.85394-5.55878V225.82289l-.88547-3.00076-3.78785-2.11529-3.88623-.39354L84.9 217.65689l.39354-15.15138-3.3451 5.11605-1.52499 4.083-4.23058 6.49345z"/><path fill-rule="evenodd" d="M102.26506 132.25819l-2.85319 7.08376-2.0169 11.6095-.88547 14.11834 1.3774 13.67559 1.91852 12.15062 2.45964 11.06838 3.88623 10.67484 5.26363 14.11833 6.19829 9.98614 7.37892 9.19906 10.52726 10.03533 18.79165 16.23362 14.95461 1.96771-6.78861-6.69022 7.28053-2.50883 13.0361-1.47578 4.27977 1.47578h5.26363l5.36201-2.41045 9.14986-1.03305v5.55879l9.14987-6.09991 11.06837-9.10067 9.64179-9.59259 6.78861-7.5265 5.26363-10.13372-4.27977.54113-2.90238 4.0338-5.75556 6.49345-4.87008 7.13296-11.56031 9.5926-8.65793 5.55878h-9.64179l-6.78861 1.42659-4.37816 1.08224 2.41045-5.11605 4.37816-9.44501-3.3943 1.91852-4.77171 7.08376-2.90237 4.083-13.03609 2.50883-6.73942 1.47579-6.7886.49193-6.73942-3.00077-7.18214-4.52573-8.16601-8.11681-7.72327-7.5265-7.18215-9.10067-5.85394-8.55955-4.82089-10.67483-3.83704-10.57646-2.41045-9.05147-1.86933-11.11757-1.03304-13.6756-1.47579-14.61026 1.86933-10.03533.6395-6.09991z"/><path fill-rule="evenodd" d="M141.76687 74.45666l-10.03533 7.5265-6.69022 6.0999-5.80475 7.08377-5.85394 6.59183-5.80475 13.52802 6.7886-3.98461 5.26363-9.10067 7.77247-9.10067 6.19829-6.49345 6.7886-5.55878 7.77247-6.1491z"/><path fill-rule="evenodd" d="M162.18188 76.47357l9.14986 5.01766 6.73942 5.11605 5.26363 5.06686 6.34587 8.46116 6.64103 13.33125 4.37815 12.15061 4.87009 13.62641 2.7548 17.7094v23.2682l-.39354 18.20133-1.3774 10.18291-2.01691 11.11757-3.83704 12.05224-3.88623 10.67484 4.37816-3.54188 5.36202-11.11758 4.23058-16.13523 2.41045-18.25053.88547-13.18367-1.3774-19.28358-1.47579-17.11909-3.29591-12.24901-3.88623-12.15061-6.73942-16.13524-5.26363-9.5434-8.11681-8.60874-7.77246-5.11605-4.8209-4.08301z"/><path fill-rule="evenodd" d="M151.01512 140.81774l16.43039-4.08301 16.3812-2.55802 12.88852-.63951 12.83932-1.03305 16.47959 2.11529 12.64255 3.04996 10.03533 3.14834 12.00304 4.03381 7.77246 5.06685 12.00304 10.18291-1.37739 13.72479-6.78861-3.49268-1.96771-4.52574 1.96771-3.14834-3.34511-4.52574-9.64179-7.18215-8.65793-3.59107-13.42964-4.52574-13.47882-3.04995-11.6587-1.08224-12.98689-1.03305-13.42964.54112-13.47883 1.96771-9.64178 2.11529-13.42964 3.49269z"/><path fill-rule="evenodd" d="M174.23412 177.12202l10.67484-4.083 8.21519-3.04995 13.57722-1.08225-2.01691 4.1322h-9.24824l-8.2152 3.00076-5.80475 3.09915-5.70637 2.55802z"/><path fill-rule="evenodd" d="M196.12491 199.65232l13.52802-1.96771 16.33201 1.47578 9.74018 2.45964 8.166 3.98462 6.29668 5.50959 4.37816 4.67332 2.90237 5.95233 1.86933 14.06914-14.51188 12.05224 4.47655-9.98614 1.86933-8.55955-.49193-9.05147-4.37816-6.54265-6.19829-4.083-7.72327-3.3943-8.16601-1.57417-9.69098-2.11529-12.00304-.39354-5.90314 1.03304z"/><path fill-rule="evenodd" d="M218.55683 171.1205l2.90238 2.95157 7.67407.49193 2.90238 3.59107-.98386 11.11757-1.91852 12.69174-1.47578 11.6095-1.52498 7.03457-6.69022 3.14834h-13.97075l.98385-3.14834 5.70637.63951 7.28053-2.60722 3.88623-4.52573 1.03305-11.11758 2.36126-15.74169-.59032-7.5265-3.68946-1.57417-4.47654-1.47578z"/><path fill-rule="evenodd" d="M172.26641 248.89431l.49193 8.55955 2.95156 1.96771 6.1491-4.47654 7.72327-5.01767 3.34511-4.96847-.59031-5.11605 2.85318-5.50959 4.87009-5.5096-2.85318-4.083-4.27978 5.11605-3.34511 3.93542-1.86932 5.01767-.59032 5.60798-1.91852 3.4435-4.82089 3.64026-2.85318 2.50884-2.41045-6.54265z"/><path fill-rule="evenodd" d="M245.46529 102.93929l4.7717 10.13372 5.26363 8.60874 5.26363 9.00227 1.96771 6.19829 9.64179-2.11529.98386 4.083-8.11681 2.50884 1.37739 10.67483.88548 14.56107-.88548 13.72479-1.96771 9.14986-5.26363 14.11834v-5.95233l2.85319-17.31587.49192-14.11833.49193-11.11757-2.85318-11.70789-2.50883-9.00228-3.73866-7.67408-5.36201-7.13294-4.7717 6.19828 4.7717 4.91928 4.47654 3.04995-.59031 3.14834-4.27977-.54112-6.73942-5.65717-3.88623-3.98462 3.88623-5.55877 3.83704-5.65718-2.85318-6.98537-3.88623-4.083-9.5926-4.91928-15.39734-4.08301-24.00609-1.47578-23.12061.39354-15.34816 2.50883-6.29668 1.57417-2.95156-2.0661 8.70712-2.41044 19.28358-3.14834 15.34815-1.57417 21.64483 1.03305 16.3812 3.04995 17.66022 3.04996z"/><path fill-rule="evenodd" d="M135.61777 175.00673l17.41425 6.19829 6.1983 2.50884-4.27978 8.55954-4.37816 12.69175-1.03305 5.01766 3.88624 3.59107 9.14986 5.01767 5.80475 3.04995-.39355 15.20058 2.85319 6.59183 1.42659-5.55878-.39355-8.60874 1.3774-5.11605-.98385-5.55879-6.29668-2.95157-5.36202-4.083-6.19829-3.00076 3.29592-14.26591 5.90313-7.03457-1.52497-5.65717-8.65793-4.91928-9.14986-3.59108-4.77171-1.96771z"/><path fill-rule="evenodd" d="M133.4041 169.59552l-1.47579-4.96847-2.85318-5.60798-3.3943-2.65641-6.09991 1.57417-1.96771 6.05071-1.91852-2.0169-3.4435.54112v2.55803l4.8209 6.64102 4.37816 4.57493 3.83703-1.08224-1.47578-3.88623-1.3774-5.21444-.59031-4.13219 2.85318-1.03305 2.36126 4.7717 3.49268 4.96847 2.36126 1.57417z"/><path fill-rule="evenodd" d="M131.92831 105.49732l-6.69022 7.62488-6.73941 5.50959-6.39507 9.4942 2.01691 2.50884v5.60798l-1.47578 4.57493-.93467 6.98537.39354 10.52726-4.27977-4.47654-1.96771-8.55955 1.96771-8.11681 1.03305-4.47655-2.0169-3.54188 2.0169-5.01766 4.7717-6.00151 8.75632-7.5265 9.05147-8.11681z"/><path fill-rule="evenodd" d="M126.27114 98.26598l7.5265-3.68946 7.37892-2.90238 5.26363.54112-3.00076 2.36126-7.13296 2.6564-5.36201 1.4266-4.67332 4.083z"/><path fill-rule="evenodd" d="M153.08122 98.61032l.39354 3.19754-1.86933 3.98461-.49193 4.67332.98386 4.083 2.90238 2.45964 5.21443.54112 3.88623-.54112 1.86933 5.70637 5.26363 2.41043 3.88623-2.41043 1.3774-4.67332.59031-8.65793 5.75556-7.18215-.49193-6.09991-3.88623 2.50883-2.36125 4.1322-4.87009 6.1491.98385 5.65717-.39354 5.60798-2.45964-1.57417-.98385-5.60798-4.77171-2.50883-3.3943 3.04995-3.24672-2.11529-.59032-5.06686 3.4435-8.11681-2.85318-1.57417z"/><path fill-rule="evenodd" d="M198.87971 92.41203l7.77246 4.47655 5.70637 2.0169-.44274 3.54188-8.75632 7.08377-12.10142 11.06838 17.36505-10.03534 3.49269 2.01691 1.91852 9.5926-3.88623 2.90236-4.82089 1.57417-6.78861 7.62488-4.87009 7.5265-3.78784 5.01767-4.8209 3.04995-4.47654 1.03305.59031 5.11605-1.57417 5.95233-3.68946 1.03305-2.50883-2.0661-1.42659-3.98462-.98386-4.083-3.3943-1.96771-6.29668 1.96771-5.90313 4.083-1.3774-4.083 8.70712-5.01766 7.28054-2.50884 4.37816 1.47579.49192 5.11605 1.4266 6.05071.98385-5.11605 1.91852-5.01766 6.78861-2.50884 6.69022-6.05071 4.37816-6.59184 7.77246-8.55954 2.0169-4.57492-.98385-4.08301-5.80475 4.08301-7.82166 5.11604-5.26363 4.083-3.49269-4.083 7.77247-9.19905 6.29667-6.44425 8.70713-6.59184-5.80475-4.47654-5.31282-5.5588z"/><path fill-rule="evenodd" d="M265.48676 160.54405l-19.97228 8.55955.88547 9.10066-1.47578 10.03533-1.42659 6.09991-.88547 5.11605 5.80475 3.98462 8.65793 6.05071 3.00076-.44273-2.0169-3.64027-4.72251-4.91928-4.91928-3.00076 1.91852-11.11757 2.0169-10.2321.98386-4.52574 7.23134-4.47655 4.91928-1.03305z"/><path fill-rule="evenodd" d="M148.50629 155.62477l-2.90238 5.4604-.39354 6.09991 4.87009 4.03381 5.75555 1.96771 3.88623-3.00076 1.82014-3.59108 4.37816 2.55803-3.88623 2.50883-.88548 4.03381 2.36126 3.00076 6.78861 3.49269 1.47578-3.09915-3.00076-2.36125-.88547-2.60722 2.41045-2.45964.49192-3.00076-2.0169-4.57493-4.37816-2.36125-4.27977.39354-3.24673 4.47654-3.00076 1.52498-4.37816-1.96771.59032-4.03381 1.91851-3.88623z"/><path fill-rule="evenodd" d="M142.60315 82.03235l13.52802-1.57417 6.69022-1.08224 5.75556 2.6564-4.27978 11.36355-3.88623-3.09915-7.77246-1.52497-7.13295-1.57417 4.87008-1.91852 7.18215.83627 3.83704 1.08225 2.90237-3.64027-6.34587-.44274h-5.70636l-10.2321 2.16449z"/><path fill="navy" fill-rule="evenodd" d="M158.0005 122.22287l-40.63326 6.69021-2.45964 19.97227-36.45186 6.00153 24.44882-122.73603 38.9607-6.39506 62.47485 108.42092-37.48491 6.19829zm-11.56031-23.76012l-19.57874-39.45263-5.80475 43.63401z"/><path fill="navy" fill-rule="evenodd" d="M254.2708 166.79153l23.12062-7.67407 17.56183 53.12822-47.42186 15.6925c-10.2813-7.92004-17.90618-15.29896-23.02223-22.28434-5.06686-6.98537-9.44502-15.88927-12.9869-26.6133-4.37816-13.18367-5.65717-24.69478-3.88623-34.43496 1.67255-9.83856 6.29668-18.54568 13.6756-26.02298 7.37892-7.57569 16.87313-13.23286 28.38424-17.02071 12.15062-4.03381 23.51416-5.01766 34.189-2.95157 10.62564 2.01691 19.87389 7.13296 27.69554 15.24977 6.05072 6.29668 11.21596 15.88927 15.44654 28.6302 4.03381 12.2982 5.95233 21.8416 5.75556 28.7286-.14758 6.7886-1.96771 13.03609-5.26363 18.59487-3.3943 5.55879-8.31358 10.47807-14.85623 14.90542l-16.87313-31.18823c3.68946-2.7548 6.24749-6.09991 7.32973-10.08453 1.13144-4.03381.88547-8.55954-.78708-13.6264-2.45964-7.5265-7.03457-12.69174-13.77399-15.39735-6.69022-2.75479-15.79089-2.26287-27.10523 1.47579-12.05223 3.98461-19.87389 9.10066-23.51416 15.34815-3.68946 6.1491-4.18138 13.33125-1.52497 21.44806 1.27901 3.83704 3.00076 7.32973 5.31282 10.42887 2.31206 3.09915 5.50959 6.49345 9.64179 10.13372l10.47806-3.49269z"/><path fill="navy" fill-rule="evenodd" d="M207.68522 246.04113l-34.18899-4.7717c.44273-5.60798-.19677-10.08452-1.91852-13.42963-2.70561-5.36202-7.42811-8.80551-14.21672-10.18291-5.11605-1.03305-9.24825-.63951-12.49497 1.22982-3.19753 1.77094-5.11605 4.23058-5.75556 7.37892-.59031 3.00076.19677 5.90313 2.31206 8.80551 2.11529 2.85318 7.77246 6.29668 16.82394 10.33049 14.85622 6.69022 24.94075 13.57721 30.40115 20.71016 5.50959 7.18215 7.37892 15.20058 5.50959 24.20286-1.18062 5.90314-4.03381 11.16677-8.55954 15.6925-4.42736 4.57493-10.42888 7.62489-17.95538 9.24825-7.42811 1.57417-17.11909 1.18063-29.12213-1.27901-14.61026-3.00076-25.23591-8.01843-31.92613-15.00381-6.54264-7.03457-9.29744-16.62716-8.36277-28.82698l33.84464 4.8209c-.19677 5.36201.88547 9.49421 3.24673 12.39658 2.41044 2.95157 6.0999 4.91928 11.11757 5.95233 4.13219.83628 7.37892.59031 9.83856-.6887 2.45964-1.3774 3.93542-3.24672 4.42735-5.75556.39354-1.82013-.14758-3.64026-1.57417-5.4604-1.32821-1.82013-5.06686-4.083-11.01919-6.69022-14.85622-6.49345-25.2851-12.15062-31.33581-16.87313-5.95233-4.82089-9.98614-10.03533-12.00304-15.74169-2.01691-5.70637-2.36126-11.6587-1.08224-17.90618 1.47578-7.37892 4.91928-13.77398 10.2321-19.136 5.36201-5.36201 12.00304-8.9039 19.97227-10.62564 7.92005-1.72175 17.46345-1.47579 28.63021.78708 19.48035 3.98462 32.27048 10.47807 38.22281 19.52954 6.00152 9.05148 8.26439 19.48035 6.93618 31.28662z"/><path fill="none" stroke="#424242" stroke-linecap="round" stroke-linejoin="round" d="M158.0005 122.22287l-40.63326 6.69021-2.45964 19.97227-36.45186 6.00153 24.44882-122.73603 38.9607-6.39506 62.47485 108.42092-37.48491 6.19829zm-11.56031-23.76012l-19.57874-39.45263-5.80475 43.63401z"/><path fill="none" stroke="#424242" stroke-linecap="round" stroke-linejoin="round" d="M254.2708 166.79153l23.12062-7.67407 17.56183 53.12822-47.42186 15.6925c-10.2813-7.92004-17.90618-15.29896-23.02223-22.28434-5.06686-6.98537-9.44502-15.88927-12.9869-26.6133-4.37816-13.18367-5.65717-24.69478-3.88623-34.43496 1.67255-9.83856 6.29668-18.54568 13.6756-26.02298 7.37892-7.57569 16.87313-13.23286 28.38424-17.02071 12.15062-4.03381 23.51416-5.01766 34.189-2.95157 10.62564 2.01691 19.87389 7.13296 27.69554 15.24977 6.05072 6.29668 11.21596 15.88927 15.44654 28.6302 4.03381 12.2982 5.95233 21.8416 5.75556 28.7286-.14758 6.7886-1.96771 13.03609-5.26363 18.59487-3.3943 5.55879-8.31358 10.47807-14.85623 14.90542l-16.87313-31.18823c3.68946-2.7548 6.24749-6.09991 7.32973-10.08453 1.13144-4.03381.88547-8.55954-.78708-13.6264-2.45964-7.5265-7.03457-12.69174-13.77399-15.39735-6.69022-2.75479-15.79089-2.26287-27.10523 1.47579-12.05223 3.98461-19.87389 9.10066-23.51416 15.34815-3.68946 6.1491-4.18138 13.33125-1.52497 21.44806 1.27901 3.83704 3.00076 7.32973 5.31282 10.42887 2.31206 3.09915 5.50959 6.49345 9.64179 10.13372l10.47806-3.49269z"/><path fill="none" stroke="#424242" stroke-linecap="round" stroke-linejoin="round" d="M207.68522 246.04113l-34.18899-4.7717c.44273-5.60798-.19677-10.08452-1.91852-13.42963-2.70561-5.36202-7.42811-8.80551-14.21672-10.18291-5.11605-1.03305-9.24825-.63951-12.49497 1.22982-3.19753 1.77094-5.11605 4.23058-5.75556 7.37892-.59031 3.00076.19677 5.90313 2.31206 8.80551 2.11529 2.85318 7.77246 6.29668 16.82394 10.33049 14.85622 6.69022 24.94075 13.57721 30.40115 20.71016 5.50959 7.18215 7.37892 15.20058 5.50959 24.20286-1.18062 5.90314-4.03381 11.16677-8.55954 15.6925-4.42736 4.57493-10.42888 7.62489-17.95538 9.24825-7.42811 1.57417-17.11909 1.18063-29.12213-1.27901-14.61026-3.00076-25.23591-8.01843-31.92613-15.00381-6.54264-7.03457-9.29744-16.62716-8.36277-28.82698l33.84464 4.8209c-.19677 5.36201.88547 9.49421 3.24673 12.39658 2.41044 2.95157 6.0999 4.91928 11.11757 5.95233 4.13219.83628 7.37892.59031 9.83856-.6887 2.45964-1.3774 3.93542-3.24672 4.42735-5.75556.39354-1.82013-.14758-3.64026-1.57417-5.4604-1.32821-1.82013-5.06686-4.083-11.01919-6.69022-14.85622-6.49345-25.2851-12.15062-31.33581-16.87313-5.95233-4.82089-9.98614-10.03533-12.00304-15.74169-2.01691-5.70637-2.36126-11.6587-1.08224-17.90618 1.47578-7.37892 4.91928-13.77398 10.2321-19.136 5.36201-5.36201 12.00304-8.9039 19.97227-10.62564 7.92005-1.72175 17.46345-1.47579 28.63021.78708 19.48035 3.98462 32.27048 10.47807 38.22281 19.52954 6.00152 9.05148 8.26439 19.48035 6.93618 31.28662z"/></g></svg>