<?xml version="1.0" standalone="no"?>
<svg id="VVV_Logo" width="400" height="400" viewBox="0 0 400 400"
xmlns="http://www.w3.org/2000/svg" version="1.1">
  <path id="blauw_bord" fill="#004b85"
     d="M 40,400 C 18,400 0,382 0,360 L 0,40 C 0,18 18,0 40,0 L 360,0 C 382,0 400,18 400,40 L 400,360 C 400,382 382,400 360,400 L 40,400" />
  <path id="witte_driehoek" fill="#ffffff"
     d="M 83.93385,58.03749 C 42.21389,57.50827 22.54465,86.54465 43.6957,126.44763 L 167.32084,335.98236 C 183.51488,360.37927 220.48953,360.83793 235.58986,335.40022 C 246.40353,317.12459 361.52591,120.64388 361.52591,120.64388 C 378.28445,87.92062 357.99779,57.98456 318.0419,58.19625 L 83.93385,58.03749" />
  <path id="v1" fill="#004b85"
     d="M 57.87872,107.64278 L 108.3484,193.23484 C 114.9989,202.9548 132.55127,202.00221 138.00221,192.98787 C 142.50055,185.57883 189.44212,105.27894 189.44212,105.27894 C 199.40904,85.82139 168.57332,66.38148 154.37266,89.15546 L 122.58434,145.9581 L 90.83131,87.25028 C 78.50055,67.35171 45.30099,83.93385 57.87872,107.64278" />
  <path id="v2" fill="#004b85"
     d="M 342.12128,107.64278 L 291.61632,193.23484 C 284.98346,202.9548 267.44873,202.00221 261.99779,192.98787 C 257.49945,185.57883 210.54024,105.27894 210.54024,105.27894 C 200.59096,85.82139 231.40904,66.38148 245.62734,89.15546 L 277.39802,145.9581 L 309.16869,87.25028 C 321.49945,67.35171 354.69901,83.93385 342.12128,107.64278" />
  <path id="v3" fill="#004b85"
     d="M 135.26792,238.90628 L 185.77288,324.44542 C 192.40573,334.20066 209.9581,333.24807 215.3914,324.25138 C 219.90739,316.8247 266.86659,236.50717 266.86659,236.50717 C 276.81588,217.0849 245.98015,197.62734 231.76185,220.40132 L 199.99118,277.18633 L 168.22051,218.4785 C 155.88975,198.57993 122.70783,215.17971 135.26792,238.90628" />
</svg>